<mxfile host="Electron" modified="2024-01-12T08:36:32.624Z" agent="Mozilla/5.0 (Macintosh; Intel Mac OS X 10_15_7) AppleWebKit/537.36 (KHTML, like Gecko) draw.io/22.1.11 Chrome/114.0.5735.289 Electron/25.9.8 Safari/537.36" etag="H-1l7v0_kLCY0li86d7i" version="22.1.11" type="device">
  <diagram name="第 1 页" id="cs3dLo06Ov6Hg1Z0BaJZ">
    <mxGraphModel dx="954" dy="617" grid="0" gridSize="10" guides="1" tooltips="1" connect="1" arrows="1" fold="1" page="1" pageScale="1" pageWidth="827" pageHeight="1169" math="0" shadow="0">
      <root>
        <mxCell id="0" />
        <mxCell id="1" parent="0" />
        <mxCell id="nuAxc10jakjFVsAVgVSb-1" value="" style="rounded=0;whiteSpace=wrap;html=1;strokeColor=none;fillColor=none;" vertex="1" parent="1">
          <mxGeometry x="56" y="59" width="731" height="334" as="geometry" />
        </mxCell>
        <mxCell id="dhnhYLAWsHPOcBkNVLQ2-1" value="&lt;b&gt;Dask Array&lt;/b&gt;" style="rounded=0;whiteSpace=wrap;html=1;fillColor=#90C9E6;strokeColor=#023047;" parent="1" vertex="1">
          <mxGeometry x="75" y="139" width="120" height="34" as="geometry" />
        </mxCell>
        <mxCell id="dhnhYLAWsHPOcBkNVLQ2-2" value="&lt;b&gt;Dask DataFrame&lt;br&gt;&lt;/b&gt;" style="rounded=0;whiteSpace=wrap;html=1;fillColor=#90C9E6;strokeColor=#023047;" parent="1" vertex="1">
          <mxGeometry x="75" y="188" width="120" height="34" as="geometry" />
        </mxCell>
        <mxCell id="dhnhYLAWsHPOcBkNVLQ2-3" value="&lt;b&gt;Dask Bag&lt;br&gt;&lt;/b&gt;" style="rounded=0;whiteSpace=wrap;html=1;fillColor=#90C9E6;strokeColor=#023047;" parent="1" vertex="1">
          <mxGeometry x="75" y="237" width="120" height="34" as="geometry" />
        </mxCell>
        <mxCell id="dhnhYLAWsHPOcBkNVLQ2-4" value="&lt;b&gt;Dask Delayed&lt;br&gt;&lt;/b&gt;" style="rounded=0;whiteSpace=wrap;html=1;fillColor=#90C9E6;strokeColor=#023047;" parent="1" vertex="1">
          <mxGeometry x="75" y="286" width="120" height="34" as="geometry" />
        </mxCell>
        <mxCell id="dhnhYLAWsHPOcBkNVLQ2-5" value="&lt;b&gt;Futures&lt;br&gt;&lt;/b&gt;" style="rounded=0;whiteSpace=wrap;html=1;fillColor=#90C9E6;strokeColor=#023047;" parent="1" vertex="1">
          <mxGeometry x="75" y="335" width="120" height="34" as="geometry" />
        </mxCell>
        <mxCell id="dhnhYLAWsHPOcBkNVLQ2-6" value="&lt;font style=&quot;font-size: 20px;&quot;&gt;&lt;b style=&quot;&quot;&gt;Collections&lt;/b&gt;&lt;/font&gt;" style="text;html=1;strokeColor=none;fillColor=none;align=center;verticalAlign=middle;whiteSpace=wrap;rounded=0;" parent="1" vertex="1">
          <mxGeometry x="88" y="70" width="90" height="30" as="geometry" />
        </mxCell>
        <mxCell id="dhnhYLAWsHPOcBkNVLQ2-7" value="&lt;font color=&quot;#b3b3b3&quot;&gt;(create task graphs)&lt;/font&gt;" style="text;html=1;strokeColor=none;fillColor=none;align=center;verticalAlign=middle;whiteSpace=wrap;rounded=0;" parent="1" vertex="1">
          <mxGeometry x="70" y="92" width="126" height="30" as="geometry" />
        </mxCell>
        <mxCell id="dhnhYLAWsHPOcBkNVLQ2-8" value="" style="endArrow=classic;html=1;rounded=0;strokeWidth=3;strokeColor=#CCCCCC;" parent="1" edge="1">
          <mxGeometry width="50" height="50" relative="1" as="geometry">
            <mxPoint x="243" y="86" as="sourcePoint" />
            <mxPoint x="298" y="86" as="targetPoint" />
          </mxGeometry>
        </mxCell>
        <mxCell id="dhnhYLAWsHPOcBkNVLQ2-9" value="&lt;font style=&quot;font-size: 20px;&quot;&gt;&lt;b style=&quot;&quot;&gt;Task Graph&lt;/b&gt;&lt;/font&gt;" style="text;html=1;strokeColor=none;fillColor=none;align=center;verticalAlign=middle;whiteSpace=wrap;rounded=0;" parent="1" vertex="1">
          <mxGeometry x="355" y="70" width="118" height="30" as="geometry" />
        </mxCell>
        <mxCell id="dhnhYLAWsHPOcBkNVLQ2-11" value="" style="endArrow=classic;html=1;rounded=0;strokeWidth=3;strokeColor=#CCCCCC;" parent="1" edge="1">
          <mxGeometry width="50" height="50" relative="1" as="geometry">
            <mxPoint x="520" y="86" as="sourcePoint" />
            <mxPoint x="575" y="86" as="targetPoint" />
          </mxGeometry>
        </mxCell>
        <mxCell id="dhnhYLAWsHPOcBkNVLQ2-12" value="&lt;font style=&quot;font-size: 20px;&quot;&gt;&lt;b style=&quot;&quot;&gt;Schedulers&lt;/b&gt;&lt;/font&gt;" style="text;html=1;strokeColor=none;fillColor=none;align=center;verticalAlign=middle;whiteSpace=wrap;rounded=0;" parent="1" vertex="1">
          <mxGeometry x="650" y="70" width="90" height="30" as="geometry" />
        </mxCell>
        <mxCell id="dhnhYLAWsHPOcBkNVLQ2-13" value="&lt;font color=&quot;#b3b3b3&quot;&gt;(excute task graphs)&lt;/font&gt;" style="text;html=1;strokeColor=none;fillColor=none;align=center;verticalAlign=middle;whiteSpace=wrap;rounded=0;" parent="1" vertex="1">
          <mxGeometry x="632" y="92" width="126" height="30" as="geometry" />
        </mxCell>
        <mxCell id="dhnhYLAWsHPOcBkNVLQ2-15" value="" style="rounded=1;whiteSpace=wrap;html=1;dashed=1;strokeColor=#023047;" parent="1" vertex="1">
          <mxGeometry x="215" y="140" width="396" height="229" as="geometry" />
        </mxCell>
        <mxCell id="dhnhYLAWsHPOcBkNVLQ2-16" value="" style="whiteSpace=wrap;html=1;aspect=fixed;rounded=1;strokeColor=#000000;fillColor=#E6E6E6;strokeWidth=2;" parent="1" vertex="1">
          <mxGeometry x="229" y="168" width="39" height="39" as="geometry" />
        </mxCell>
        <mxCell id="dhnhYLAWsHPOcBkNVLQ2-19" value="" style="whiteSpace=wrap;html=1;aspect=fixed;rounded=1;strokeColor=#000000;fillColor=#E6E6E6;strokeWidth=2;" parent="1" vertex="1">
          <mxGeometry x="229" y="226" width="39" height="39" as="geometry" />
        </mxCell>
        <mxCell id="dhnhYLAWsHPOcBkNVLQ2-20" value="" style="whiteSpace=wrap;html=1;aspect=fixed;rounded=1;strokeColor=#000000;fillColor=#E6E6E6;strokeWidth=2;" parent="1" vertex="1">
          <mxGeometry x="229" y="292" width="39" height="39" as="geometry" />
        </mxCell>
        <mxCell id="dhnhYLAWsHPOcBkNVLQ2-24" value="" style="ellipse;whiteSpace=wrap;html=1;aspect=fixed;strokeWidth=2;fillColor=#E6E6E6;" parent="1" vertex="1">
          <mxGeometry x="314" y="201" width="38" height="38" as="geometry" />
        </mxCell>
        <mxCell id="dhnhYLAWsHPOcBkNVLQ2-23" value="" style="endArrow=classic;html=1;rounded=0;edgeStyle=orthogonalEdgeStyle;curved=1;startArrow=oval;startFill=0;strokeWidth=2;" parent="1" edge="1">
          <mxGeometry width="50" height="50" relative="1" as="geometry">
            <mxPoint x="271" y="187" as="sourcePoint" />
            <mxPoint x="310" y="220" as="targetPoint" />
            <Array as="points">
              <mxPoint x="280" y="187" />
              <mxPoint x="280" y="197" />
              <mxPoint x="279" y="197" />
              <mxPoint x="279" y="220" />
              <mxPoint x="298" y="220" />
            </Array>
          </mxGeometry>
        </mxCell>
        <mxCell id="dhnhYLAWsHPOcBkNVLQ2-30" value="" style="endArrow=none;html=1;curved=1;edgeStyle=orthogonalEdgeStyle;startArrow=oval;startFill=0;strokeWidth=2;" parent="1" edge="1">
          <mxGeometry width="50" height="50" relative="1" as="geometry">
            <mxPoint x="271" y="250" as="sourcePoint" />
            <mxPoint x="286" y="220" as="targetPoint" />
            <Array as="points">
              <mxPoint x="281" y="250" />
              <mxPoint x="281" y="220" />
            </Array>
          </mxGeometry>
        </mxCell>
        <mxCell id="dhnhYLAWsHPOcBkNVLQ2-32" value="" style="endArrow=classic;html=1;rounded=0;entryX=0.559;entryY=0.319;entryDx=0;entryDy=0;entryPerimeter=0;startArrow=oval;startFill=0;strokeWidth=2;" parent="1" edge="1">
          <mxGeometry width="50" height="50" relative="1" as="geometry">
            <mxPoint x="356" y="221" as="sourcePoint" />
            <mxPoint x="389.05999999999995" y="221.05100000000004" as="targetPoint" />
          </mxGeometry>
        </mxCell>
        <mxCell id="dhnhYLAWsHPOcBkNVLQ2-42" value="" style="whiteSpace=wrap;html=1;aspect=fixed;rounded=1;strokeColor=#000000;fillColor=#E6E6E6;strokeWidth=2;" parent="1" vertex="1">
          <mxGeometry x="393" y="206" width="39" height="39" as="geometry" />
        </mxCell>
        <mxCell id="dhnhYLAWsHPOcBkNVLQ2-43" value="" style="whiteSpace=wrap;html=1;aspect=fixed;rounded=1;strokeColor=#000000;fillColor=#E6E6E6;strokeWidth=2;" parent="1" vertex="1">
          <mxGeometry x="393" y="292" width="39" height="39" as="geometry" />
        </mxCell>
        <mxCell id="dhnhYLAWsHPOcBkNVLQ2-44" value="" style="endArrow=classic;html=1;rounded=0;edgeStyle=orthogonalEdgeStyle;curved=1;startArrow=oval;startFill=0;strokeWidth=2;" parent="1" edge="1">
          <mxGeometry width="50" height="50" relative="1" as="geometry">
            <mxPoint x="435" y="225" as="sourcePoint" />
            <mxPoint x="478" y="267" as="targetPoint" />
            <Array as="points">
              <mxPoint x="444" y="225" />
              <mxPoint x="444" y="235" />
              <mxPoint x="443" y="235" />
              <mxPoint x="443" y="267" />
              <mxPoint x="474" y="267" />
            </Array>
          </mxGeometry>
        </mxCell>
        <mxCell id="dhnhYLAWsHPOcBkNVLQ2-45" value="" style="endArrow=none;html=1;curved=1;edgeStyle=orthogonalEdgeStyle;startArrow=oval;startFill=0;strokeWidth=2;" parent="1" edge="1">
          <mxGeometry width="50" height="50" relative="1" as="geometry">
            <mxPoint x="437" y="312" as="sourcePoint" />
            <mxPoint x="452" y="266" as="targetPoint" />
            <Array as="points">
              <mxPoint x="447" y="312" />
              <mxPoint x="447" y="266" />
            </Array>
          </mxGeometry>
        </mxCell>
        <mxCell id="dhnhYLAWsHPOcBkNVLQ2-46" value="" style="endArrow=classic;html=1;rounded=0;entryX=0.559;entryY=0.319;entryDx=0;entryDy=0;entryPerimeter=0;startArrow=oval;startFill=0;strokeWidth=2;" parent="1" edge="1">
          <mxGeometry width="50" height="50" relative="1" as="geometry">
            <mxPoint x="272.94" y="311.02" as="sourcePoint" />
            <mxPoint x="305.99999999999994" y="311.071" as="targetPoint" />
          </mxGeometry>
        </mxCell>
        <mxCell id="dhnhYLAWsHPOcBkNVLQ2-47" value="" style="ellipse;whiteSpace=wrap;html=1;aspect=fixed;strokeWidth=2;fillColor=#E6E6E6;" parent="1" vertex="1">
          <mxGeometry x="314" y="292" width="38" height="38" as="geometry" />
        </mxCell>
        <mxCell id="dhnhYLAWsHPOcBkNVLQ2-48" value="" style="endArrow=classic;html=1;rounded=0;entryX=0.559;entryY=0.319;entryDx=0;entryDy=0;entryPerimeter=0;startArrow=oval;startFill=0;strokeWidth=2;" parent="1" edge="1">
          <mxGeometry width="50" height="50" relative="1" as="geometry">
            <mxPoint x="356" y="312" as="sourcePoint" />
            <mxPoint x="389.05999999999995" y="312.05100000000004" as="targetPoint" />
          </mxGeometry>
        </mxCell>
        <mxCell id="dhnhYLAWsHPOcBkNVLQ2-49" value="" style="whiteSpace=wrap;html=1;aspect=fixed;rounded=1;strokeColor=#000000;fillColor=#E6E6E6;strokeWidth=2;" parent="1" vertex="1">
          <mxGeometry x="563" y="248" width="39" height="39" as="geometry" />
        </mxCell>
        <mxCell id="dhnhYLAWsHPOcBkNVLQ2-50" value="" style="ellipse;whiteSpace=wrap;html=1;aspect=fixed;strokeWidth=2;fillColor=#E6E6E6;" parent="1" vertex="1">
          <mxGeometry x="484" y="249" width="38" height="38" as="geometry" />
        </mxCell>
        <mxCell id="dhnhYLAWsHPOcBkNVLQ2-51" value="" style="endArrow=classic;html=1;rounded=0;entryX=0.559;entryY=0.319;entryDx=0;entryDy=0;entryPerimeter=0;startArrow=oval;startFill=0;strokeWidth=2;" parent="1" edge="1">
          <mxGeometry width="50" height="50" relative="1" as="geometry">
            <mxPoint x="526" y="269" as="sourcePoint" />
            <mxPoint x="559.06" y="269.05100000000004" as="targetPoint" />
          </mxGeometry>
        </mxCell>
        <mxCell id="dhnhYLAWsHPOcBkNVLQ2-52" value="&lt;b&gt;Single-machine (threads, processes, synchronous)&lt;/b&gt;" style="rounded=0;whiteSpace=wrap;html=1;fillColor=#FFB703;strokeColor=#FB8402;strokeWidth=2;" parent="1" vertex="1">
          <mxGeometry x="631" y="195.5" width="138" height="60" as="geometry" />
        </mxCell>
        <mxCell id="dhnhYLAWsHPOcBkNVLQ2-53" value="&lt;b&gt;Distributed&lt;/b&gt;" style="rounded=0;whiteSpace=wrap;html=1;fillColor=#FFB703;strokeColor=#FB8402;strokeWidth=2;" parent="1" vertex="1">
          <mxGeometry x="631" y="270" width="138" height="34" as="geometry" />
        </mxCell>
      </root>
    </mxGraphModel>
  </diagram>
</mxfile>
